<?xml version="1.0" encoding="UTF-8" standalone="no"?>
<!-- Created with Inkscape (http://www.inkscape.org/) -->

<svg
   xmlns:dc="http://purl.org/dc/elements/1.1/"
   xmlns:cc="http://creativecommons.org/ns#"
   xmlns:rdf="http://www.w3.org/1999/02/22-rdf-syntax-ns#"
   xmlns:svg="http://www.w3.org/2000/svg"
   xmlns="http://www.w3.org/2000/svg"
   xmlns:sodipodi="http://sodipodi.sourceforge.net/DTD/sodipodi-0.dtd"
   xmlns:inkscape="http://www.inkscape.org/namespaces/inkscape"
   width="800"
   height="800"
   id="svg3124"
   version="1.1"
   inkscape:version="0.91 r13725"
   sodipodi:docname="logo-uncp-v0 - [JoelTinx] - inkscape.svg">
  <defs
     id="defs3126">
    <linearGradient
       id="linearGradient4133">
      <stop
         id="stop4141"
         offset="0"
         style="stop-color:#0d0d0d;stop-opacity:1;" />
      <stop
         style="stop-color:#1a1a1a;stop-opacity:1"
         offset="1"
         id="stop4137" />
    </linearGradient>
    <linearGradient
       id="linearGradient4115">
      <stop
         id="stop4117"
         offset="0"
         style="stop-color:#016b01;stop-opacity:1;" />
      <stop
         style="stop-color:#066f06;stop-opacity:1;"
         offset="0.55795872"
         id="stop4119" />
      <stop
         style="stop-color:#0b740b;stop-opacity:1;"
         offset="0.84543532"
         id="stop4121" />
      <stop
         id="stop4129"
         offset="1"
         style="stop-color:#37c837;stop-opacity:1" />
    </linearGradient>
    <linearGradient
       id="linearGradient4081">
      <stop
         style="stop-color:#ffd900;stop-opacity:1;"
         offset="0"
         id="stop4083" />
      <stop
         id="stop4131"
         offset="0.55130213"
         style="stop-color:#ffdb2a;stop-opacity:1;" />
      <stop
         style="stop-color:#ffdd55;stop-opacity:1"
         offset="1"
         id="stop4085" />
    </linearGradient>
    <linearGradient
       id="linearGradient4065">
      <stop
         style="stop-color:#016b01;stop-opacity:1;"
         offset="0"
         id="stop4067" />
      <stop
         id="stop4093"
         offset="0.04899543"
         style="stop-color:#066f06;stop-opacity:1;" />
      <stop
         id="stop4091"
         offset="0.09799086"
         style="stop-color:#0b740b;stop-opacity:1;" />
      <stop
         id="stop4089"
         offset="0.19598171"
         style="stop-color:#167d16;stop-opacity:1;" />
      <stop
         id="stop4079"
         offset="0.39196342"
         style="stop-color:#2b902b;stop-opacity:1;" />
      <stop
         id="stop4077"
         offset="0.75484723"
         style="stop-color:#55b555;stop-opacity:1;" />
      <stop
         style="stop-color:#37c837;stop-opacity:1"
         offset="1"
         id="stop4069" />
    </linearGradient>
    <path
       inkscape:connector-curvature="0"
       style="fill:none;stroke:none"
       d="m 263.23237,521.18469 c 37.474,10.34592 79.37795,14.99233 122.81964,14.99233 43.44334,0 83.48789,-4.64677 118.34221,-14.99351"
       id="path3838" />
    <path
       style="fill:none;stroke:none"
       d="m 143.88919,334.11982 c -0.0308,-1.61384 -0.0463,-3.24102 -0.0463,-4.88163 0,-128.0918 106.58318,-253.253253 234.66951,-253.253253 l 0,0 0,0 c 128.08631,0 228.48754,125.161453 228.48754,253.253253 0,1.64049 -0.0185,3.26757 -0.0552,4.8813"
       id="path3061"
       inkscape:connector-curvature="0" />
    <filter
       id="filter3190"
       inkscape:label="Diffuse light"
       inkscape:menu="ABCs"
       inkscape:menu-tooltip="Basic diffuse bevel to use for building textures"
       color-interpolation-filters="sRGB">
      <feGaussianBlur
         id="feGaussianBlur3192"
         stdDeviation="6"
         in="SourceGraphic"
         result="result0" />
      <feDiffuseLighting
         id="feDiffuseLighting3194"
         diffuseConstant="1"
         surfaceScale="10"
         result="result5">
        <feDistantLight
           id="feDistantLight3196"
           elevation="25"
           azimuth="235" />
      </feDiffuseLighting>
      <feComposite
         id="feComposite3198"
         in2="SourceGraphic"
         k1="1"
         in="result5"
         result="result4"
         operator="arithmetic"
         k2="0"
         k3="0.6" />
    </filter>
    <filter
       id="filter3200"
       inkscape:label="Diffuse light"
       inkscape:menu="ABCs"
       inkscape:menu-tooltip="Basic diffuse bevel to use for building textures"
       color-interpolation-filters="sRGB">
      <feGaussianBlur
         id="feGaussianBlur3202"
         stdDeviation="6"
         in="SourceGraphic"
         result="result0" />
      <feDiffuseLighting
         id="feDiffuseLighting3204"
         diffuseConstant="1"
         surfaceScale="10"
         result="result5">
        <feDistantLight
           id="feDistantLight3206"
           elevation="25"
           azimuth="235" />
      </feDiffuseLighting>
      <feComposite
         id="feComposite3208"
         in2="SourceGraphic"
         k1="1"
         in="result5"
         result="result4"
         operator="arithmetic"
         k2="0"
         k3="0.6" />
    </filter>
    <filter
       id="filter3210"
       inkscape:label="Diffuse light"
       inkscape:menu="ABCs"
       inkscape:menu-tooltip="Basic diffuse bevel to use for building textures"
       color-interpolation-filters="sRGB">
      <feGaussianBlur
         id="feGaussianBlur3212"
         stdDeviation="6"
         in="SourceGraphic"
         result="result0" />
      <feDiffuseLighting
         id="feDiffuseLighting3214"
         diffuseConstant="1"
         surfaceScale="10"
         result="result5">
        <feDistantLight
           id="feDistantLight3216"
           elevation="25"
           azimuth="235" />
      </feDiffuseLighting>
      <feComposite
         id="feComposite3218"
         in2="SourceGraphic"
         k1="1"
         in="result5"
         result="result4"
         operator="arithmetic"
         k2="0"
         k3="0.6" />
    </filter>
    <filter
       id="filter3220"
       inkscape:label="Specular light"
       inkscape:menu="ABCs"
       inkscape:menu-tooltip="Basic specular bevel to use for building textures"
       color-interpolation-filters="sRGB">
      <feGaussianBlur
         id="feGaussianBlur3222"
         result="result0"
         in="SourceAlpha"
         stdDeviation="6" />
      <feSpecularLighting
         id="feSpecularLighting3224"
         specularExponent="25"
         specularConstant="1"
         surfaceScale="10"
         lighting-color="rgb(255,255,255)"
         result="result1"
         in="result0">
        <feDistantLight
           id="feDistantLight3226"
           azimuth="235"
           elevation="45" />
      </feSpecularLighting>
      <feComposite
         id="feComposite3228"
         in2="result1"
         k3="1"
         k2="1"
         operator="arithmetic"
         result="result4"
         in="SourceGraphic" />
      <feComposite
         id="feComposite3230"
         in2="SourceAlpha"
         operator="in"
         result="result2"
         in="result4" />
    </filter>
    <filter
       id="filter3232"
       inkscape:label="Specular light"
       inkscape:menu="ABCs"
       inkscape:menu-tooltip="Basic specular bevel to use for building textures"
       color-interpolation-filters="sRGB">
      <feGaussianBlur
         id="feGaussianBlur3234"
         result="result0"
         in="SourceAlpha"
         stdDeviation="6" />
      <feSpecularLighting
         id="feSpecularLighting3236"
         specularExponent="25"
         specularConstant="1"
         surfaceScale="10"
         lighting-color="rgb(255,255,255)"
         result="result1"
         in="result0">
        <feDistantLight
           id="feDistantLight3238"
           azimuth="235"
           elevation="45" />
      </feSpecularLighting>
      <feComposite
         id="feComposite3240"
         in2="result1"
         k3="1"
         k2="1"
         operator="arithmetic"
         result="result4"
         in="SourceGraphic" />
      <feComposite
         id="feComposite3242"
         in2="SourceAlpha"
         operator="in"
         result="result2"
         in="result4" />
    </filter>
  </defs>
  <sodipodi:namedview
     id="base"
     pagecolor="#ffffff"
     bordercolor="#666666"
     borderopacity="1.0"
     inkscape:pageopacity="0.0"
     inkscape:pageshadow="2"
     inkscape:zoom="0.5"
     inkscape:cx="356.28178"
     inkscape:cy="380.24696"
     inkscape:document-units="px"
     inkscape:current-layer="layer1"
     showgrid="false"
     inkscape:window-width="1366"
     inkscape:window-height="706"
     inkscape:window-x="-8"
     inkscape:window-y="-8"
     inkscape:window-maximized="1" />
  <metadata
     id="metadata3129">
    <rdf:RDF>
      <cc:Work
         rdf:about="">
        <dc:format>image/svg+xml</dc:format>
        <dc:type
           rdf:resource="http://purl.org/dc/dcmitype/StillImage" />
        <dc:title />
      </cc:Work>
    </rdf:RDF>
  </metadata>
  <g
     inkscape:label="Capa 1"
     inkscape:groupmode="layer"
     id="layer1"
     transform="translate(0,-252.36218)">
    <path
       style="fill:#fdd30b;fill-opacity:1;stroke:#000000;stroke-width:0.5;stroke-linecap:round;stroke-linejoin:miter;stroke-miterlimit:4;stroke-dasharray:none;stroke-dashoffset:0;stroke-opacity:1"
       d="m 398.63292,365.87284 c -177.65255,0 -316.906556,175.2275 -316.906556,354.55737 0,179.32998 156.399106,244.16121 334.055046,244.16121 177.6559,0 308.33229,-64.83123 308.33229,-244.16121 0,-179.32987 -147.82824,-354.55737 -325.48078,-354.55737 z"
       id="path4063"
       inkscape:connector-curvature="0"
       sodipodi:nodetypes="sssss"
       inkscape:export-filename="C:\Documents and Settings\tinoco\Escritorio\logo_uncpxXx4.png"
       inkscape:export-xdpi="90"
       inkscape:export-ydpi="90" />
    <path
       inkscape:export-ydpi="90"
       inkscape:export-xdpi="90"
       inkscape:export-filename="C:\Documents and Settings\tinoco\Escritorio\logo_uncpxXx4.png"
       sodipodi:nodetypes="sssss"
       inkscape:connector-curvature="0"
       id="path3266"
       d="m 398.79781,377.3867 c -170.81976,0 -304.717842,168.48792 -304.717842,340.92053 0,172.43262 150.383752,234.77033 321.206772,234.77033 170.82298,0 296.47335,-62.33771 296.47335,-234.77033 0,-172.43261 -142.14253,-340.92053 -312.96228,-340.92053 z"
       style="fill:#000000;fill-opacity:1;stroke:none" />
    <path
       style="fill:#ffd900;fill-opacity:1;stroke:#000000;stroke-width:1.02910495;stroke-linecap:round;stroke-linejoin:miter;stroke-miterlimit:4;stroke-dasharray:none;stroke-dashoffset:0;stroke-opacity:1"
       d="m 399.6599,439.7101 c -135.09555,0 -240.99101,132.0072 -240.99101,267.10545 0,135.09813 118.9334,183.9386 254.03154,183.9386 135.09813,0 234.47074,-48.84047 234.47074,-183.9386 0,-135.09825 -112.4157,-267.10545 -247.51127,-267.10545 z"
       id="path4061"
       inkscape:connector-curvature="0"
       sodipodi:nodetypes="sssss"
       inkscape:export-filename="C:\Documents and Settings\tinoco\Escritorio\logo_uncpxXx4.png"
       inkscape:export-xdpi="90"
       inkscape:export-ydpi="90" />
    <path
       inkscape:export-ydpi="90"
       inkscape:export-xdpi="90"
       inkscape:export-filename="C:\Documents and Settings\tinoco\Escritorio\logo_uncpxXx4.png"
       sodipodi:nodetypes="sssss"
       inkscape:connector-curvature="0"
       id="path3248"
       d="m 399.78379,448.27961 c -129.96207,0 -231.83359,126.99132 -231.83359,256.95582 0,129.9645 114.41405,176.94922 244.37859,176.94922 129.96452,0 225.56107,-46.98472 225.56107,-176.94922 0,-129.9645 -108.14401,-256.95582 -238.10607,-256.95582 z"
       style="fill:#016b01;fill-opacity:1;stroke:#000000;stroke-width:1;stroke-opacity:1" />
    <g
       style="font-style:normal;font-variant:normal;font-weight:bold;font-stretch:normal;font-size:35.625px;line-height:125%;font-family:Sans;-inkscape-font-specification:'Sans, Bold';text-align:start;letter-spacing:0px;word-spacing:0px;writing-mode:lr-tb;text-anchor:start;fill:#ffd900;fill-opacity:1;stroke:none"
       id="text4040"
       transform="matrix(1.1087759,0,0,1.1087759,-62.765839,-965.7036)"
       inkscape:export-xdpi="90"
       inkscape:export-ydpi="90">
      <path
         d="m 188.398,1615.7099 -3.2424,-5.8599 13.62224,-7.5375 q 2.81577,-1.558 3.52809,-3.145 0.68868,-1.5937 -0.4651,-3.6789 -1.16221,-2.1005 -2.86993,-2.3484 -1.73136,-0.2546 -4.54713,1.3034 l -13.62224,7.5375 -3.24239,-5.8598 13.62224,-7.5376 q 4.82486,-2.6697 8.52308,-1.555 3.69823,1.1146 6.44373,6.0765 2.73709,4.9466 1.717,8.672 -1.02009,3.7255 -5.84495,6.3952 l -13.62224,7.5375 z"
         id="path4246"
         inkscape:connector-curvature="0" />
      <path
         d="m 172.91476,1585.256 -2.24669,-7.1344 14.1529,-14.3596 -16.98999,5.3502 -1.90708,-6.056 24.77155,-7.8007 2.24669,7.1345 -14.1529,14.3596 16.99,-5.3503 1.90707,6.056 -24.77155,7.8007 z"
         id="path4248"
         inkscape:connector-curvature="0" />
      <path
         d="m 164.12578,1553.1486 -1.14467,-6.5986 25.5886,-4.4389 1.14467,6.5985 -25.5886,4.439 z"
         id="path4250"
         inkscape:connector-curvature="0" />
      <path
         d="m 161.7237,1540.3122 -0.42206,-6.7186 18.69973,-8.0767 -19.56239,-5.6557 -0.42206,-6.7187 26.52277,7.9723 0.50059,7.9686 -25.31658,11.2288 z"
         id="path4252"
         inkscape:connector-curvature="0" />
      <path
         d="m 160.34221,1506.7104 0.94082,-18.0489 5.05509,0.2635 -0.5922,11.3609 4.82926,0.2517 0.55688,-10.6834 5.05509,0.2635 -0.55688,10.6834 5.94103,0.3097 0.61212,-11.7431 5.05509,0.2635 -0.96075,18.4311 -25.93555,-1.3519 z"
         id="path4254"
         inkscape:connector-curvature="0" />
      <path
         d="m 174.97125,1472.1439 q 0.32025,-2.0803 -0.31579,-3.0934 -0.63339,-1.0303 -2.40422,-1.3029 -1.75363,-0.27 -2.65037,0.5248 -0.8941,0.7775 -1.21434,2.8578 l -0.42876,2.7852 6.58473,1.0137 0.42875,-2.7852 z m 4.14445,3.4892 9.71377,1.4953 -1.01896,6.6191 -25.6684,-3.9514 1.55622,-10.1092 q 0.78076,-5.0718 2.84541,-7.1651 2.06729,-2.1106 5.74648,-1.5442 2.54449,0.3917 3.98722,1.881 1.44538,1.4721 1.83793,4.0669 0.51855,-1.3105 1.78296,-2.2071 1.24986,-0.9164 3.63708,-1.6753 l 7.84277,-2.471 -1.08512,7.0489 -6.86011,2.1471 q -2.07112,0.6492 -2.92688,1.5206 -0.8531,0.8543 -1.10188,2.4704 l -0.28849,1.874 z"
         id="path4256"
         inkscape:connector-curvature="0" />
      <path
         d="m 172.51762,1432.923 5.32254,1.3732 q -1.4609,1.8328 -2.44094,3.6818 -0.98005,1.849 -1.43199,3.6007 -0.59968,2.3244 -0.24644,3.6012 0.35325,1.2768 1.70073,1.6245 1.01061,0.2607 1.77449,-0.3327 0.75138,-0.6145 1.66406,-2.4809 l 1.2685,-2.6189 q 1.92422,-3.9768 4.09854,-5.3021 2.17431,-1.3253 5.34089,-0.5084 4.16034,1.0734 5.5596,4.0752 1.38677,2.9806 0.0788,8.0505 -0.61707,2.3918 -1.69325,4.6831 -1.07619,2.2912 -2.59031,4.4695 l -5.47413,-1.4123 q 1.90152,-2.0783 3.13637,-4.149 1.22236,-2.0919 1.76121,-4.1805 0.54753,-2.1223 0.13126,-3.4333 -0.41627,-1.311 -1.73007,-1.65 -1.17904,-0.3042 -2.01899,0.3055 -0.8356,0.5928 -1.9319,2.7532 l -1.20332,2.3662 q -1.78189,3.5644 -4.00239,4.8598 -2.21616,1.2786 -5.2143,0.5051 -3.7561,-0.969 -5.15156,-3.916 -1.39545,-2.9469 -0.22216,-7.4946 0.53451,-2.0718 1.41945,-4.1789 0.86811,-2.1114 2.09535,-4.2919 z"
         id="path4258"
         inkscape:connector-curvature="0" />
      <path
         d="m 174.59445,1423.7005 2.13202,-6.3486 24.61959,8.2678 -2.13203,6.3487 -24.61958,-8.2679 z"
         id="path4260"
         inkscape:connector-curvature="0" />
      <path
         d="m 186.76288,1405.0042 14.58707,6.1919 0.93797,-2.2096 q 1.60406,-3.7789 0.57345,-6.5596 -1.02381,-2.7968 -4.59452,-4.3125 -3.5547,-1.5089 -6.25492,-0.3118 -2.70023,1.197 -4.31109,4.9919 l -0.93796,2.2097 z m -7.27634,4.1868 2.75953,-6.501 q 2.31094,-5.4441 4.22382,-7.7691 1.90366,-2.3477 4.56989,-3.4647 2.3309,-0.9948 4.79115,-0.9143 2.46025,0.081 5.13428,1.2157 2.70605,1.1486 4.48903,2.8692 1.76696,1.7139 2.67052,4.0816 1.04178,2.7099 0.68451,5.733 -0.3733,3.0163 -2.65704,8.3964 l -2.75953,6.5009 -23.90616,-10.1477 z"
         id="path4262"
         inkscape:connector-curvature="0" />
      <path
         d="m 218.77697,1376.1802 -5.0585,9.1689 3.34452,3.7325 -3.2519,5.8944 -18.0929,-20.9681 3.8569,-6.991 27.38644,4.1228 -3.2519,5.8943 -4.93266,-0.8538 z m -8.47078,5.3792 3.43676,-6.2294 -10.76131,-1.8842 7.32455,8.1136 z"
         id="path4264"
         inkscape:connector-curvature="0" />
      <path
         d="m 215.52908,1350.8266 13.00843,9.0501 1.37092,-1.9705 q 2.34448,-3.37 1.90564,-6.3029 -0.4289,-2.9472 -3.61318,-5.1625 -3.17,-2.2054 -6.05824,-1.5872 -2.88824,0.6183 -5.24265,4.0025 l -1.37092,1.9705 z m -7.97995,2.6067 4.0333,-5.7974 q 3.37763,-4.855 5.7264,-6.7385 2.34442,-1.9078 5.18299,-2.4547 2.4853,-0.496 4.87681,0.087 2.39151,0.5831 4.77615,2.2421 2.4132,1.6789 3.8057,3.7284 1.37822,2.0395 1.77733,4.5422 0.46429,2.8659 -0.50497,5.7516 -0.98354,2.8757 -4.32144,7.6736 l -4.03329,5.7974 -21.31898,-14.8318 z"
         id="path4266"
         inkscape:connector-curvature="0" />
      <path
         d="m 235.29472,1316.6615 5.18761,-5.3886 19.38325,5.5491 -12.83237,-12.3538 4.40344,-4.574 18.70969,18.0119 -5.18761,5.3886 -19.38324,-5.5491 12.83237,12.3537 -4.40344,4.5741 -18.7097,-18.0119 z"
         id="path4268"
         inkscape:connector-curvature="0" />
      <path
         d="m 284.15964,1299.7752 -8.07798,6.6637 1.73608,4.7014 -5.19298,4.2838 -9.10596,-26.1552 6.15912,-5.0808 23.94689,13.9126 -5.19298,4.2838 -4.27219,-2.6093 z m -9.85598,1.8841 5.48819,-4.5274 -9.31253,-5.7125 3.82434,10.2399 z"
         id="path4270"
         inkscape:connector-curvature="0" />
      <path
         d="m 313.0174,1283.8025 q -1.0253,1.8066 -2.4377,3.3046 -1.4124,1.4981 -3.23596,2.6823 -5.44152,3.5339 -10.59247,2.5649 -5.16042,-0.9836 -8.54273,-6.1917 -3.39179,-5.2227 -2.18214,-10.3225 1.20018,-5.1144 6.6417,-8.6483 1.82356,-1.1843 3.76652,-1.8653 1.94296,-0.6811 4.01043,-0.883 l 2.92755,4.5079 q -2.2526,-0.051 -4.09193,0.4381 -1.83933,0.4893 -3.51701,1.5788 -3.00523,1.9517 -3.47608,4.9954 -0.47084,3.0436 1.72719,6.4282 2.18856,3.3699 5.16061,4.1776 2.97204,0.8077 5.97728,-1.144 1.67768,-1.0895 2.87276,-2.5708 1.19508,-1.4814 2.06443,-3.5601 l 2.92755,4.5079 z"
         id="path4272"
         inkscape:connector-curvature="0" />
      <path
         d="m 306.5783,1259.5052 5.91499,-3.1407 12.17929,22.9379 -5.91499,3.1407 -12.17929,-22.9379 z"
         id="path4274"
         inkscape:connector-curvature="0" />
      <path
         d="m 333.32519,1251.6354 q -2.83612,1.153 -3.54758,3.8833 -0.71145,2.7303 0.83459,6.5333 1.53948,3.7868 3.9542,5.2462 2.41472,1.4595 5.25084,0.3065 2.85223,-1.1595 3.56369,-3.8899 0.71146,-2.7303 -0.82803,-6.5171 -1.54604,-3.803 -3.96076,-5.2624 -2.41472,-1.4594 -5.26695,-0.2999 z m -1.82774,-4.4959 q 5.80115,-2.3584 10.43798,-0.3752 4.63683,1.9831 7.01485,7.8326 2.37147,5.8334 0.43366,10.4894 -1.93781,4.6559 -7.73897,7.0143 -5.78503,2.3518 -10.43797,0.3752 -4.63683,-1.9831 -7.0083,-7.8165 -2.37802,-5.8495 -0.44021,-10.5055 1.95393,-4.6625 7.73896,-7.0143 z"
         id="path4276"
         inkscape:connector-curvature="0" />
      <path
         d="m 352.54856,1239.9016 7.267,-1.7717 13.39583,15.0684 -4.21912,-17.3056 6.16851,-1.5039 6.1515,25.2317 -7.26701,1.7717 -13.39582,-15.0683 4.21911,17.3056 -6.1685,1.5039 -6.1515,-25.2318 z"
         id="path4278"
         inkscape:connector-curvature="0" />
      <path
         d="m 403.0848,1252.4001 -10.42525,0.9863 -1.19956,4.866 -6.70194,0.634 7.13064,-26.7613 7.94883,-0.752 12.02272,24.9494 -6.70195,0.634 -2.07349,-4.5564 z m -9.21657,-3.968 7.08293,-0.6701 -4.50598,-9.9525 -2.57695,10.6226 z"
         id="path4280"
         inkscape:connector-curvature="0" />
      <path
         d="m 416.17434,1230.6145 6.69349,0.2194 -0.68485,20.8976 11.75272,0.3851 -0.1658,5.0593 -18.44622,-0.6046 0.85066,-25.9568 z"
         id="path4282"
         inkscape:connector-curvature="0" />
      <path
         d="m 461.47178,1240.3302 -3.52094,15.4508 2.34051,0.5334 q 4.00261,0.9121 6.55788,-0.593 2.57222,-1.5012 3.4341,-5.2834 0.85801,-3.7651 -0.79673,-6.2118 -1.65473,-2.4466 -5.67431,-3.3626 l -2.34051,-0.5334 z m -5.40499,-6.4234 6.88585,1.5692 q 5.76647,1.3141 8.39249,2.7867 2.64684,1.4595 4.21678,3.8868 1.39046,2.1188 1.74526,4.5547 0.35481,2.4358 -0.29064,5.2682 -0.65317,2.8663 -2.03217,4.9249 -1.37514,2.0416 -3.54633,3.3488 -2.48355,1.5036 -5.52225,1.6853 -3.03483,0.1648 -8.73347,-1.1338 l -6.88585,-1.5692 5.77033,-25.3216 z"
         id="path4284"
         inkscape:connector-curvature="0" />
      <path
         d="m 487.952,1242.0154 16.96366,6.2356 -1.74645,4.7512 -10.6778,-3.9251 -1.66844,4.5389 10.04105,3.691 -1.74645,4.7511 -10.04105,-3.691 -2.05254,5.5838 11.03699,4.0571 -1.74645,4.7511 -17.32285,-6.3676 8.96033,-24.3761 z"
         id="path4286"
         inkscape:connector-curvature="0" />
      <path
         d="m 513.20349,1251.8884 6.00541,2.9641 -9.25414,18.7493 10.54457,5.2045 -2.24039,4.5392 -16.55,-8.1686 11.49455,-23.2885 z"
         id="path4288"
         inkscape:connector-curvature="0" />
      <path
         d="m 550.17049,1302.6213 q -2.05833,-0.2801 -3.97409,-1.0343 -1.91576,-0.7542 -3.69314,-2.0067 -5.30372,-3.7375 -6.31927,-8.8795 -1.00553,-5.1562 2.57169,-10.2324 3.58724,-5.0904 8.7712,-5.8636 5.19398,-0.7874 10.49769,2.9502 1.77739,1.2525 3.13201,2.803 1.35463,1.5504 2.31074,3.3946 l -3.09625,4.3937 q -0.78996,-2.1101 -1.92806,-3.6357 -1.13809,-1.5255 -2.77329,-2.6779 -2.92912,-2.0641 -5.92964,-1.3696 -3.00052,0.6945 -5.32521,3.9934 -2.31467,3.2846 -1.95949,6.3439 0.35518,3.0593 3.28431,5.1234 1.63519,1.1524 3.45466,1.711 1.81947,0.5587 4.07239,0.5928 l -3.09625,4.3937 z"
         id="path4290"
         inkscape:connector-curvature="0" />
      <path
         d="m 570.68053,1287.6812 13.66116,11.8331 -3.31416,3.8262 -8.59904,-7.4484 -3.16612,3.6553 8.08626,7.0042 -3.31417,3.8261 -8.08625,-7.0041 -3.89501,4.4967 8.88831,7.6989 -3.31417,3.8262 -13.95043,-12.0836 17.00362,-19.6306 z"
         id="path4292"
         inkscape:connector-curvature="0" />
      <path
         d="m 590.87927,1305.6335 5.12346,5.4496 -6.50783,19.0828 12.9777,-12.201 4.34899,4.6258 -18.92158,17.7892 -5.12347,-5.4497 6.50783,-19.0827 -12.9777,12.201 -4.34899,-4.6258 18.92159,-17.7892 z"
         id="path4294"
         inkscape:connector-curvature="0" />
      <path
         d="m 610.7612,1327.2075 14.58968,18.975 -4.01289,3.0854 -5.24847,-6.826 -16.57557,12.7448 -4.08214,-5.3092 16.57557,-12.7447 -5.25907,-6.8399 4.01289,-3.0854 z"
         id="path4296"
         inkscape:connector-curvature="0" />
      <path
         d="m 623.98328,1365.2324 q 1.12246,1.7805 2.26701,2.1283 1.15384,0.3624 2.66949,-0.5931 1.50093,-0.9462 1.65674,-2.1342 0.16509,-1.1734 -0.95737,-2.9539 l -1.50279,-2.3838 -5.63587,3.5529 1.50279,2.3838 z m -5.417,0.084 -8.31401,5.2412 -3.57146,-5.6653 21.96959,-13.8498 5.45459,8.6525 q 2.73657,4.3409 2.55066,7.2753 -0.17663,2.949 -3.32566,4.9342 -2.17783,1.3729 -4.24367,1.1947 -2.05656,-0.1635 -4.05456,-1.865 0.46798,1.3294 0.10136,2.8355 -0.34263,1.5114 -1.64718,3.6499 l -4.3004,7.0087 -3.80337,-6.0332 3.77097,-6.1198 q 1.13788,-1.8482 1.21244,-3.0673 0.0838,-1.2044 -0.78816,-2.5876 l -1.01114,-1.604 z"
         id="path4298"
         inkscape:connector-curvature="0" />
      <path
         d="m 645.6934,1389.3124 q -1.35557,-2.745 -4.13027,-3.2567 -2.77471,-0.5116 -6.45559,1.3061 -3.66528,1.81 -4.94578,4.3242 -1.2805,2.5141 0.0751,5.2592 1.36327,2.7607 4.13798,3.2723 2.7747,0.5116 6.43998,-1.2984 3.68088,-1.8177 4.96138,-4.3318 1.2805,-2.5142 -0.0828,-5.2749 z m 4.35155,-2.1488 q 2.77275,5.6149 1.131,10.3833 -1.64174,4.7684 -7.30343,7.5642 -5.64609,2.7882 -10.43029,1.193 -4.78419,-1.5951 -7.55694,-7.21 -2.76505,-5.5993 -1.13101,-10.3833 1.64174,-4.7684 7.28783,-7.5566 5.66169,-2.7958 10.44589,-1.2007 4.7919,1.6108 7.55695,7.2101 z"
         id="path4300"
         inkscape:connector-curvature="0" />
      <path
         d="m 660.58964,1427.2658 -15.12677,4.7227 0.7154,2.2915 q 1.22344,3.9186 3.809,5.3711 2.59074,1.469 6.29357,0.313 3.68621,-1.1509 4.96952,-3.8112 1.28331,-2.6603 0.0547,-6.5956 l -0.7154,-2.2915 z m 2.83607,-7.9013 2.10473,6.7415 q 1.76258,5.6455 1.80951,8.6559 0.0687,3.0218 -1.2405,5.5991 -1.13274,2.2671 -3.06016,3.7982 -1.92741,1.5311 -4.70038,2.3969 -2.80617,0.8761 -5.27897,0.7187 -2.45619,-0.1625 -4.67758,-1.3824 -2.54822,-1.3912 -4.23277,-3.9267 -1.66794,-2.5408 -3.40979,-8.1199 l -2.10473,-6.7415 24.79064,-7.7398 z"
         id="path4302"
         inkscape:connector-curvature="0" />
      <path
         d="m 672.46765,1450.344 3.56715,17.7179 -4.96238,0.9991 -2.24534,-11.1526 -4.7407,0.9545 2.11145,10.4875 -4.96238,0.999 -2.11144,-10.4875 -5.83208,1.1742 2.32088,11.5277 -4.96238,0.9991 -3.64267,-18.093 25.45989,-5.1259 z"
         id="path4304"
         inkscape:connector-curvature="0" />
      <path
         d="m 677.31383,1476.7143 0.6957,6.6608 -20.79569,2.172 1.22154,11.6954 -5.03457,0.5259 -1.91723,-18.3563 25.83025,-2.6978 z"
         id="path4306"
         inkscape:connector-curvature="0" />
      <path
         d="m 679.75852,1515.6641 -0.54104,11.1022 q -0.24131,4.9517 -2.57656,7.4851 -2.31872,2.5516 -6.38433,2.3535 -4.08298,-0.199 -6.15998,-2.9648 -2.06048,-2.7476 -1.81917,-7.6993 l 0.21506,-4.4131 -8.99994,-0.4386 0.32598,-6.6892 25.93998,1.2642 z m -5.17344,6.4529 -7.24512,-0.3531 -0.18035,3.7007 q -0.0948,1.946 0.79174,3.0515 0.90394,1.1064 2.64138,1.1911 1.73744,0.085 2.72731,-0.9294 0.98987,-1.0141 1.0847,-2.9601 l 0.18034,-3.7007 z"
         id="path4308"
         inkscape:connector-curvature="0" />
      <path
         d="m 677.80143,1544.7422 -2.98652,17.8249 -4.99236,-0.8364 1.87987,-11.22 -4.76934,-0.7991 -1.76777,10.5509 -4.99236,-0.8365 1.76777,-10.5508 -5.86731,-0.9831 -1.94311,11.5974 -4.99236,-0.8365 3.04976,-18.2024 25.61373,4.2916 z"
         id="path4310"
         inkscape:connector-curvature="0" />
      <path
         d="m 658.70909,1577.9467 q -0.6472,2.0028 -0.18049,3.1042 0.46137,1.118 2.16625,1.6689 1.68833,0.5456 2.70012,-0.096 1.00643,-0.6253 1.65363,-2.6281 l 0.8665,-2.6815 -6.33951,-2.0486 -0.8665,2.6815 z m -3.5364,-4.1043 -9.35203,-3.022 2.05927,-6.3726 24.71253,7.9857 -3.14507,9.7327 q -1.57789,4.8829 -3.94934,6.621 -2.37681,1.7547 -5.91899,0.6101 -2.44974,-0.7916 -3.63709,-2.4915 -1.1927,-1.6834 -1.16733,-4.3076 -0.7205,1.2114 -2.11146,1.8953 -1.37977,0.7058 -3.85733,1.0752 l -8.13605,1.1915 2.19299,-6.7864 7.11436,-1.0281 q 2.14804,-0.3113 3.13156,-1.0355 0.97818,-0.7077 1.48096,-2.2636 l 0.58302,-1.8042 z"
         id="path4312"
         inkscape:connector-curvature="0" />
      <path
         d="m 661.88727,1598.9126 -2.35583,6.2691 -14.57351,-5.4765 q -3.0124,-1.132 -4.6822,-0.6446 -1.65964,0.5099 -2.49794,2.7407 -0.84443,2.2471 0.0748,3.7075 0.9294,1.4828 3.9418,2.6148 l 14.57351,5.4765 -2.35582,6.2691 -14.57351,-5.4765 q -5.16179,-1.9398 -6.71277,-5.4772 -1.55098,-3.5375 0.44382,-8.8459 1.98868,-5.292 5.48551,-6.9326 3.49682,-1.6406 8.65862,0.2991 l 14.57351,5.4765 z m 2.51126,13.3941 -1.73169,4.6082 -2.55486,-6.2561 1.19933,-3.1916 3.08722,4.8395 z"
         id="path4314"
         inkscape:connector-curvature="0" />
    </g>
    <g
       transform="matrix(1.1087759,0,0,1.1087759,-62.765839,-967.92115)"
       style="font-style:normal;font-variant:normal;font-weight:bold;font-stretch:normal;font-size:36.25px;line-height:125%;font-family:Sans;-inkscape-font-specification:'Sans, Bold';text-align:start;letter-spacing:0px;word-spacing:0px;writing-mode:lr-tb;text-anchor:start;fill:#ffd900;fill-opacity:1;stroke:none"
       id="text4054"
       inkscape:export-xdpi="90"
       inkscape:export-ydpi="90">
      <path
         d="m 311.97602,1677.0614 6.61945,1.619 -2.39279,9.7831 9.76585,2.3886 2.39279,-9.7831 6.61946,1.619 -6.27845,25.6698 -6.61946,-1.619 2.66193,-10.8835 -9.76585,-2.3886 -2.66193,10.8835 -6.61945,-1.6191 6.27845,-25.6697 z"
         id="path4229"
         inkscape:connector-curvature="0" />
      <path
         d="m 339.63001,1683.5606 6.72167,1.1214 -2.60696,15.6257 q -0.53886,3.2299 0.27565,4.8014 0.83488,1.5569 3.22674,1.956 2.40933,0.4019 3.68697,-0.8025 1.29802,-1.2191 1.83689,-4.449 l 2.60695,-15.6257 6.72167,1.1215 -2.60696,15.6257 q -0.92335,5.5344 -4.1508,7.7774 -3.22744,2.243 -8.91904,1.2934 -5.67414,-0.9466 -7.99861,-4.1159 -2.32448,-3.1692 -1.40113,-8.7037 l 2.60696,-15.6257 z"
         id="path4231"
         inkscape:connector-curvature="0" />
      <path
         d="m 379.70482,1710.9225 -10.5983,-1.1029 -2.17078,4.6146 -6.81319,-0.709 12.47077,-25.2714 8.08076,0.8409 7.00051,27.2976 -6.81319,-0.709 -1.15658,-4.9608 z m -8.40075,-5.8036 7.2005,0.7493 -2.50326,-10.8312 -4.69724,10.0819 z"
         id="path4233"
         inkscape:connector-curvature="0" />
      <path
         d="m 392.42443,1690.379 7.60242,0.363 8.73585,18.5627 0.86442,-18.1044 6.45322,0.3082 -1.26034,26.3963 -7.60242,-0.363 -8.73585,-18.5628 -0.86442,18.1044 -6.45322,-0.3081 1.26034,-26.3963 z"
         id="path4235"
         inkscape:connector-curvature="0" />
      <path
         d="m 442.47018,1716.5205 q -1.8749,0.976 -3.90975,1.4744 -2.03485,0.4984 -4.24737,0.5014 -6.60217,0.01 -10.46579,-3.6675 -3.86364,-3.6942 -3.87219,-10.0131 -0.009,-6.3367 3.84509,-10.0235 3.85363,-3.7046 10.4558,-3.7135 2.21252,0 4.24871,0.4898 2.0362,0.4929 3.91373,1.4639 l 0.007,5.4693 q -1.89567,-1.2895 -3.7373,-1.8889 -1.84163,-0.5993 -3.87715,-0.5965 -3.64624,0 -5.7317,2.3442 -2.08546,2.3392 -2.07991,6.4457 0.006,4.0887 2.09731,6.4223 2.09179,2.3336 5.73802,2.3287 2.03552,0 3.87553,-0.6071 1.84,-0.6043 3.73217,-1.899 l 0.007,5.4694 z"
         id="path4237"
         inkscape:connector-curvature="0" />
      <path
         d="m 463.9323,1712.255 -10.64402,0.4948 -1.45614,4.8874 -6.84258,0.3181 8.55047,-26.8524 8.11563,-0.3773 11.00482,25.9433 -6.84259,0.3181 -1.88559,-4.732 z m -9.17432,-4.4817 7.23157,-0.3362 -4.09518,-10.3349 -3.13639,10.6711 z"
         id="path4239"
         inkscape:connector-curvature="0" />
      <path
         d="m 466.45518,1690.5821 7.4169,-0.7201 6.89988,8.7908 5.07993,-9.9539 7.43452,-0.7219 -8.54642,16.1947 1.07589,11.0813 -6.78269,0.6585 -1.07589,-11.0813 -11.50212,-14.2481 z"
         id="path4241"
         inkscape:connector-curvature="0" />
      <path
         d="m 505.87765,1690.3899 q -3.07357,0.5078 -4.39245,3.0579 -1.31888,2.5501 -0.63797,6.6715 0.67803,4.1039 2.74706,6.0943 2.06903,1.9903 5.1426,1.4825 3.09103,-0.5106 4.40991,-3.0608 1.31888,-2.5501 0.64086,-6.654 -0.68091,-4.1214 -2.74995,-6.1117 -2.06903,-1.9904 -5.16006,-1.4797 z m -0.80498,-4.8724 q 6.28685,-1.0386 10.44375,1.9703 4.1569,3.0089 5.20423,9.3481 1.04445,6.3218 -1.92375,10.5078 -2.96819,4.1861 -9.25503,5.2247 -6.26939,1.0358 -10.44375,-1.9702 -4.1569,-3.0089 -5.20135,-9.3306 -1.04733,-6.3393 1.92086,-10.5253 2.98566,-4.189 9.25504,-5.2248 z"
         id="path4243"
         inkscape:connector-curvature="0" />
    </g>
    <path
       inkscape:export-ydpi="90"
       inkscape:export-xdpi="90"
       inkscape:export-filename="C:\Documents and Settings\tinoco\Escritorio\logo_uncpxXx4.png"
       id="path4337"
       d="m 250.03191,534.24866 0,31.08032 -13.4439,6.75666 -0.76229,24.67026 4.95485,5.57848 16.38909,0.38119 c 0,0 1.04676,52.57993 10.29083,76.22835 4.29925,10.9985 18.18418,26.77682 30.69923,37.00539 11.94945,9.76632 23.90798,14.79518 23.90798,14.79518 0,0 1.145,19.82757 -2.2522,29.24895 -2.08093,5.77096 -7.1137,8.74181 -9.2167,14.75559 -2.06105,12.28191 -3.77111,28.60143 10.60267,30.17944 19.70688,2.00311 41.56225,1.47046 50.85753,0 16.20724,-7.81554 19.12408,-9.88152 27.18664,-29.17733 l -16.36851,0.93825 c 7.6295,-4.16689 12.90092,-10.1453 18.52099,-16.54738 l -16.75388,0.33807 0.0693,-18.71713 c 0,0 13.23051,2.6146 16.97813,7.55353 4.7005,6.19484 5.78118,12.19654 3.39562,23.0764 -2.54324,11.59924 -5.79121,21.90409 0.1386,27.85799 0.38652,0.38819 4.64816,4.25238 7.41494,4.6776 13.79096,2.1202 35.18852,1.73856 46.15367,0 15.199,-7.77241 18.2233,-16.3693 25.57027,-32.0158 l -15.07242,0.90088 c 11.62847,-5.75743 10.89394,-6.46205 18.46348,-16.18768 l -24.11131,1.45527 c -2.16253,-25.36946 -10.18215,-38.75981 -27.3036,-57.26872 27.06662,10.14286 37.66703,1.33186 55.54274,-20.33916 l 0.0861,19.80118 c -2.9e-4,3.21456 1.57784,5.24795 5.70191,5.34918 41.7937,-0.29172 47.09352,5.13241 65.69327,-24.52668 0,0 -11.72275,6.39609 -18.3641,7.38035 -6.4195,0.95144 -19.40358,1.55916 -19.40358,1.55916 0,0 1.81776,5.86154 0,7.65754 -2.0669,2.04214 -6.69785,2.00588 -8.73161,-0.0688 -3.01372,-3.07519 0.1386,-12.95882 0.1386,-12.95882 28.12736,-1.86939 37.43351,-4.96044 47.53876,-24.24515 0,0 -9.6961,5.31691 -14.96847,6.82595 -7.78615,2.22853 -24.08123,3.15303 -24.08123,3.15303 0,0 1.46791,4.65076 -0.10389,6.19795 -2.02077,1.98892 -6.5438,2.02961 -8.52372,0 -2.95856,-3.03284 0.31185,-9.77619 0.31185,-9.77619 27.0911,-1.0305 38.24906,-4.23054 53.77563,-24.32377 0,0 -13.72822,5.00889 -20.8935,6.27156 -7.38894,1.30204 -22.48736,1.24738 -22.48736,1.24738 0,0 2.24507,5.83948 -0.10389,8.19352 -1.95348,1.95765 -6.31325,2.04713 -8.28117,0.10422 -3.56188,-3.51703 0,-13.21771 0,-13.21771 25.89114,-1.13162 56.53017,-9.32947 56.79011,-26.99171 -21.6486,12.2421 -40.91798,10.27026 -64.2397,9.73638 -23.41464,-1.10589 -47.90387,16.84087 -55.68134,15.45357 -8.31438,-1.48299 -24.83159,-7.47005 -27.22867,-16.0604 -0.0929,-0.33297 -0.27861,-3.66938 -0.27861,-3.66938 37.2055,-4.71851 43.43028,-11.70557 52.93983,-24.17076 -16.52316,5.62315 -25.58089,4.4647 -36.05773,-0.25469 10.36099,-7.32047 19.36767,-7.61474 36.80031,-4.57093 -5.24841,-20.59474 -29.65584,-30.02809 -41.69799,-26.8785 -7.44324,-29.46173 -51.59937,-35.19399 -71.48334,-16.39547 18.78402,35.81889 -13.37627,68.1049 -40.6967,52.94571 l -11.05249,26.04116 8.9723,-0.39595 c 6.44353,-0.38175 3.5531,2.80199 3.94314,7.66774 l -0.5549,16.91305 c 0.90527,2.74555 -4.04477,4.50229 -8.63636,2.98427 -18.96804,-6.36737 -23.76745,-31.16913 -25.63735,-56.11604 l 12.43908,-0.62368 4.22721,-4.9549 -1.14342,-27.7887 -12.99347,-6.16756 -0.83158,-28.55098 -47.05368,0 z m 205.40074,6.72196 c -11.07944,7.40939 -12.36232,8.22944 -10.20095,21.71925 11.56846,-1.37909 25.48078,4.79723 32.74354,14.98832 0,0 11.35894,-3.80587 11.79481,-11.17114 2.31638,-7.27113 -2.80126,-18.01771 -13.75575,-21.23993 -13.61702,-2.14304 -21.20534,6.20216 -21.20534,6.20216 -1.88126,-3.25215 -0.18286,-5.8265 0.62369,-10.49866 z m -170.23175,0.51968 0.0346,4.747 6.86056,-0.34649 0.20789,5.26668 -5.68248,0.10423 0,4.53899 5.47459,-0.13859 0.10389,5.68247 -5.50923,0.0687 -0.0693,5.54388 -8.38512,-0.0344 -0.0693,-5.61318 -5.43993,-0.0688 0.0346,5.61318 -8.45441,0.0688 0,-5.68248 -5.54388,0 0.0346,-5.43988 5.61318,0 -0.10389,-3.01454 -5.78643,0.10423 -0.0346,-5.54388 7.38029,-0.2772 -0.1386,-5.23198 6.92985,-0.10422 0.0693,3.91531 5.61318,0 0,-3.98461 6.86055,-0.1733 z m 244.79693,5.57858 -14.06759,0.2079 c 1.30021,20.07771 -2.51,25.21489 7.96932,30.35274 0,0 23.76953,3.11921 33.40188,-0.10423 7.91818,-2.64953 7.40238,-12.9373 7.55353,-29.83305 l -13.44391,-0.2079 c 0,0 0.77447,20.0409 -1.14342,21.82903 -4.66626,2.76551 -16.24514,3.36192 -19.64612,-0.62369 -3.91465,-5.34131 -0.62369,-21.62113 -0.62369,-21.62113 z m 5.57853,0.51969 c 0,0 -0.67515,10.42404 1.45527,14.89917 0.96348,2.02396 5.94239,1.39129 7.44958,0.4505 2.45023,-1.52956 1.59387,-15.34967 1.59387,-15.34967 z m -255.88469,1.83646 -7.83073,0.10423 0.17325,7.20704 7.69213,0.1386 -0.0346,-7.44965 z m 69.36779,1.07407 c -2.23876,0.1152 -4.60276,0.69787 -7.03379,1.83647 -50.01997,23.42633 2.47234,75.22168 23.94262,35.68872 8.77368,-16.15497 -1.23746,-38.33105 -16.90883,-37.52519 z m -2.66799,17.70582 c 4.95469,-0.25579 8.10988,6.79236 5.33598,11.91934 -6.78808,12.54625 -23.36794,-3.89568 -7.55353,-11.33035 0.7686,-0.36135 1.50973,-0.55251 2.21755,-0.58899 z m 51.52343,-3.21744 c 9.13248,-1.28108 15.1347,4.83149 14.24084,7.82574 -1.0035,3.93948 -11.12241,4.8163 -11.12241,4.8163 0,0 -13.87796,0.26001 -13.96364,-4.643 0,0 -1.05921,-7.5093 10.84521,-7.99904 z m -144.00227,9.38501 40.08918,0 c 0,0 1.50216,0.36179 2.00966,0.90088 0.47003,0.49928 0.69298,1.90565 0.69298,1.90565 l -0.1386,12.71633 c 0,0 -0.20801,1.44141 -0.69298,1.94036 -0.58454,0.60129 -2.35615,0.93547 -2.35615,0.93547 l -39.50014,0.2772 c 0,0 -1.61398,-0.41502 -2.21755,-0.93548 -0.64977,-0.56026 -1.31667,-2.18295 -1.31667,-2.18295 l 0.13859,-12.40443 c 0,0 0.59429,-1.55928 1.17808,-2.11355 0.56763,-0.53898 2.1136,-1.03948 2.1136,-1.03948 z m 4.8509,4.3658 c 0,0 -1.162,0.29871 -1.59387,0.58899 -0.44414,0.29859 -0.90088,1.10877 -0.90088,1.10877 l -0.1386,6.65266 c 0,0 0.54513,0.91097 1.03948,1.21278 0.4592,0.28041 1.69781,0.48509 1.69781,0.48509 l 30.07555,-0.1386 c 0,0 1.28775,-0.16122 1.73246,-0.48509 0.36897,-0.26877 0.55439,-1.07418 0.55439,-1.07418 l 0.1386,-6.82585 c 0,0 -0.19681,-0.7706 -0.55439,-1.03948 -0.38612,-0.29038 -1.55922,-0.48509 -1.55922,-0.48509 z m 130.7316,2.56405 6.72196,0 -14.31014,26.22942 7.79608,-0.17319 12.61232,-25.84834 6.51406,-0.20789 -13.4439,31.9466 -24.39307,0 z m 120.33684,0.83158 c -17.24184,5.29163 -13.45833,24.43787 3.15308,32.74348 l 0,6.72196 48.1278,0.76228 -0.13859,-5.43988 c 21.16382,-11.1157 18.27878,-30.81077 2.39079,-34.78784 z m 8.21681,7.702 39.43085,0.49507 c 0,0 1.63954,0.3272 2.1829,0.86618 0.50323,0.49928 0.76228,1.94035 0.76228,1.94035 l -0.13859,9.84538 c 0,0 -0.27771,1.44141 -0.79694,1.94036 -0.62581,0.60129 -2.49474,0.90088 -2.49474,0.90088 l -39.13879,0.47511 c 0,0 -1.70992,-0.41513 -2.35615,-0.93559 -0.69567,-0.56026 -1.42062,-2.18284 -1.42062,-2.18284 l 0.43558,-10.22647 c 0,0 0.657,-1.52467 1.28202,-2.07895 0.60775,-0.53898 2.2522,-1.03948 2.2522,-1.03948 z m 3.18279,3.42035 c 0,0 -1.26377,0.22253 -1.73246,0.48509 -0.48203,0.2701 -1.00483,1.03948 -1.00483,1.03948 l -0.10389,6.02897 c 0,0 0.57226,0.8012 1.10877,1.07418 0.49836,0.25358 1.83641,0.48509 1.83641,0.48509 l 32.60494,-0.1733 c 0,0 1.45775,-0.12285 1.94036,-0.41579 0.40045,-0.24305 0.58904,-0.97018 0.58904,-0.97018 l 0.10389,-6.16757 c 0,0 -0.20095,-0.72691 -0.58904,-0.97018 -0.41905,-0.26255 -1.69781,-0.41579 -1.69781,-0.41579 z m -245.35132,14.72599 c 0,0 7.21681,36.51487 13.65181,52.28566 2.84863,6.98152 6.74787,13.68872 11.74609,19.33428 4.4936,5.07564 9.66051,10.14186 15.9733,12.61232 2.51761,0.98526 8.07328,0.62369 8.07328,0.62369 l -0.10389,13.23601 c 0,0 -7.27132,-0.58798 -10.49873,-2.11355 -7.19666,-3.40183 -13.53241,-8.88939 -18.50269,-15.10707 -5.47382,-6.84769 -10.8946,-20.60327 -13.40926,-29.00147 -5.27824,-17.62755 -6.92985,-51.86987 -6.92985,-51.86987 z M 548.25798,711.93 l -44.10849,0.20789 0,9.29676 c -0.0719,0.64054 -0.30391,0.78457 -1.01861,0.78058 -7.35734,-0.0499 -13.39376,-0.34827 -20.39462,-3.56328 1.41597,7.80933 7.91184,7.97997 13.02811,14.0676 5.61993,39.38849 -15.5233,63.18659 19.95797,63.23482 1.8033,1.93659 0.2079,7.55353 0.2079,7.55353 -21.16318,-13.59425 -38.91419,4.71873 -12.19654,20.58166 0,0 -5.42524,-4.52603 -4.19256,-6.92985 1.63422,-3.18674 4.65664,-0.58998 8.17722,-1.24738 2.53867,-0.47411 5.50804,-2.40194 4.643,-5.68247 0.89308,-0.67979 3.36098,-0.2079 3.36098,-0.2079 -5.43064,15.74418 3.72051,21.05233 15.52286,28.75888 -5.3869,-13.48749 -7.08726,-28.14229 -2.99468,-39.04965 7.12987,8.3075 8.22824,15.08102 7.85548,30.61508 12.18541,-16.29535 22.44292,-59.77999 18.14564,-102.80404 -0.16581,-0.82803 -0.29855,-1.43553 -1.24611,-1.67381 l -3.88461,-0.99934 c -0.46209,-0.11088 -0.40176,-0.38874 -0.46506,-0.67125 z m -253.0781,10.39477 -14.06759,17.77501 c -46.35794,-6.56717 -60.78152,35.15186 -80.21301,26.43743 0,0 21.25084,15.99576 26.02159,12.61233 52.09786,-36.9483 71.84007,-10.50942 31.46151,36.17381 -4.3729,5.05558 5.99432,24.46237 5.99432,24.46237 6.08837,-23.48554 49.29327,-39.05541 31.84266,-86.27662 l 14.72593,-19.81937 z m 220.95825,29.31327 c 5.69649,6.90645 12.02061,29.85534 0.83158,33.81766 -11.1451,-2.19671 -6.4368,-25.65164 -0.83158,-33.81766 z m -101.21045,16.14655 19.64612,14.10218 -19.71542,14.2409 0.0693,-7.06845 11.12241,-7.27634 -11.12241,-7.34564 z m -87.83584,1.87105 20.78955,13.825 -20.6856,12.12724 0.0693,-5.68248 10.77591,-6.89515 -10.84521,-7.48423 -0.10389,-5.89038 z m -69.71428,3.53423 c -5.43294,-0.0122 -11.11074,5.12554 -17.97171,15.32905 l -9.9489,24.0866 18.58481,-6.51106 9.6786,-4.83593 c 18.15411,-12.50655 12.52466,-28.0405 -0.3428,-28.06866 z"
       style="fill:#fdd30b;fill-opacity:1;stroke:none"
       inkscape:connector-curvature="0"
       sodipodi:nodetypes="ccccccsscsccccccccssccccccccccccscscccsccsccscsccccssccccccccccccccccccccccccccccccccccccccccccccccccccccccccccccccccccccccccccccccccsccscccccccccscccccccccccccccccccccccccccccccccccccccccccccccsccccccccccccccccccsssccsssccccccccccccccccccccccccccsscccccccccccccccccccccccccccc" />
  </g>
</svg>
